<svg width="19" height="19" viewBox="0 0 19 19" fill="none" xmlns="http://www.w3.org/2000/svg">
<path d="M10.5513 5C10.5513 6.9978 9.14756 8.5 7.55133 8.5C5.9551 8.5 4.55133 6.9978 4.55133 5C4.55133 3.0022 5.9551 1.5 7.55133 1.5C9.14756 1.5 10.5513 3.0022 10.5513 5Z" stroke="#222222" stroke-linecap="round"/>
<path d="M11.8368 5.71678C12.1178 5.13274 12.5658 4.73628 13.0573 4.57822C13.5432 4.42201 14.0645 4.49972 14.5166 4.81292C14.9742 5.12994 15.3302 5.66979 15.4782 6.3325C15.6261 6.99488 15.5471 7.69868 15.2658 8.28322C14.9848 8.86726 14.5369 9.26372 14.0453 9.42178C13.5595 9.57799 13.0381 9.50028 12.5861 9.18708C12.1285 8.87006 11.7725 8.33021 11.6245 7.6675C11.4766 7.00512 11.5556 6.30132 11.8368 5.71678L11.8368 5.71678Z" stroke="#222222"/>
<path d="M12.6108 17.8333H1.93422V18.8333H12.6108V17.8333ZM1.50294 17.3977C1.62369 16.387 1.94972 14.7986 2.81 13.4757C3.65261 12.18 5.00901 11.1296 7.27249 11.1296V10.1296C4.62415 10.1296 2.97193 11.3924 1.97168 12.9305C0.989097 14.4415 0.638022 16.2075 0.509997 17.2791L1.50294 17.3977ZM7.27249 11.1296C9.53597 11.1296 10.8924 12.18 11.735 13.4757C12.5953 14.7986 12.9213 16.387 13.042 17.3977L14.035 17.2791C13.907 16.2075 13.5559 14.4415 12.5733 12.9305C11.573 11.3924 9.92083 10.1296 7.27249 10.1296V11.1296ZM1.93422 17.8333C1.64738 17.8333 1.47691 17.6156 1.50294 17.3977L0.509997 17.2791C0.404996 18.158 1.11649 18.8333 1.93422 18.8333V17.8333ZM12.6108 18.8333C13.4285 18.8333 14.14 18.158 14.035 17.2791L13.042 17.3977C13.0681 17.6156 12.8976 17.8333 12.6108 17.8333V18.8333Z" fill="#222222"/>
<path d="M12.618 18.3333L12.6145 17.8333L12.618 18.8333V18.3333ZM18.0525 17.255L18.5428 17.1568L18.5428 17.1568L18.0525 17.255ZM11.652 12.5309L11.3634 12.1226L10.9148 12.4398L11.2727 12.8566L11.652 12.5309ZM13.5385 17.3384L14.035 17.2791L14.035 17.2791L13.5385 17.3384ZM17.1267 17.8333H12.618V18.8333H17.1267V17.8333ZM17.5623 17.3532C17.6094 17.5883 17.4317 17.8333 17.1267 17.8333V18.8333C17.9967 18.8333 18.7265 18.074 18.5428 17.1568L17.5623 17.3532ZM13.6108 12.4136C14.8674 12.4136 15.7497 13.1402 16.3892 14.1636C17.0338 15.1949 17.3837 16.4614 17.5623 17.3532L18.5428 17.1568C18.3552 16.2201 17.976 14.8158 17.2372 13.6336C16.4934 12.4433 15.3379 11.4136 13.6108 11.4136V12.4136ZM11.9407 12.9391C12.4008 12.6138 12.9471 12.4136 13.6108 12.4136V11.4136C12.7281 11.4136 11.9821 11.6851 11.3634 12.1226L11.9407 12.9391ZM11.2727 12.8566C12.4804 14.2632 12.9006 16.2139 13.042 17.3977L14.035 17.2791C13.8868 16.039 13.4371 13.8423 12.0314 12.2052L11.2727 12.8566ZM13.042 17.3977C13.068 17.6148 12.8991 17.8313 12.6145 17.8333L12.6216 18.8333C13.4347 18.8275 14.1395 18.154 14.035 17.2791L13.042 17.3977Z" fill="#222222"/>
<rect x="15.371" y="1.85482" width="3.25362" height="0.741935" rx="0.370968" stroke="#222222" stroke-width="0.741935" stroke-linecap="round"/>
<rect x="17.3307" y="0.332963" width="3.78569" height="0.665926" rx="0.332963" transform="rotate(90 17.3307 0.332963)" stroke="#222222" stroke-width="0.665926" stroke-linecap="round"/>
</svg>
