<svg width="25" height="25" viewBox="0 0 25 25" fill="none" xmlns="http://www.w3.org/2000/svg">
<path d="M7.8125 8.85419L7.8125 8.33335C7.8125 7.69476 7.8125 7.37546 7.84889 7.10753C8.0909 5.32562 9.49227 3.92425 11.2742 3.68224C11.5421 3.64585 11.8614 3.64585 12.5 3.64585V3.64585C13.1386 3.64585 13.4579 3.64585 13.7258 3.68224C15.5077 3.92425 16.9091 5.32562 17.1511 7.10753C17.1875 7.37546 17.1875 7.69476 17.1875 8.33335L17.1875 8.85419" stroke="#222222" stroke-linecap="round"/>
<path d="M16.1458 14.0625V11.9792" stroke="#222222" stroke-linecap="round"/>
<path d="M8.85417 14.0625V11.9792" stroke="#222222" stroke-linecap="round"/>
<path d="M5.72917 12.4542C5.72917 10.7571 5.72917 9.90857 6.25638 9.38136C6.78359 8.85416 7.63212 8.85416 9.32917 8.85416H15.6708C17.3679 8.85416 18.2164 8.85416 18.7436 9.38136C19.2708 9.90857 19.2708 10.7571 19.2708 12.4542V15.3542C19.2708 18.1826 19.2708 19.5968 18.3922 20.4755C17.5135 21.3542 16.0993 21.3542 13.2708 21.3542H11.7292C8.90075 21.3542 7.48653 21.3542 6.60785 20.4755C5.72917 19.5968 5.72917 18.1826 5.72917 15.3542V12.4542Z" stroke="#222222"/>
</svg>
