<svg width="19" height="19" viewBox="0 0 19 19" fill="none" xmlns="http://www.w3.org/2000/svg">
<path d="M13.2083 2.58334C14.4958 2.58334 15.1395 2.58334 15.6019 2.89232C15.8021 3.02607 15.9739 3.19795 16.1077 3.39813C16.4167 3.86054 16.4167 4.50425 16.4167 5.79168V14.5C16.4167 16.2285 16.4167 17.0927 15.8797 17.6297C15.3427 18.1667 14.4785 18.1667 12.75 18.1667H7.24999C5.52151 18.1667 4.65727 18.1667 4.1203 17.6297C3.58333 17.0927 3.58333 16.2285 3.58333 14.5V5.79168C3.58333 4.50425 3.58333 3.86054 3.8923 3.39813C4.02606 3.19795 4.19793 3.02607 4.39812 2.89232C4.86053 2.58334 5.50424 2.58334 6.79166 2.58334" stroke="#222222"/>
<path d="M7.25 2.58333C7.25 1.57081 8.07081 0.75 9.08333 0.75H10.9167C11.9292 0.75 12.75 1.57081 12.75 2.58333C12.75 3.59586 11.9292 4.41667 10.9167 4.41667H9.08333C8.07081 4.41667 7.25 3.59586 7.25 2.58333Z" stroke="#222222"/>
<path d="M7.25 9L12.75 9" stroke="#222222" stroke-linecap="round"/>
<path d="M7.25 12.6667L10.9167 12.6667" stroke="#222222" stroke-linecap="round"/>
</svg>
