<svg width="19" height="19" viewBox="0 0 19 19" fill="none" xmlns="http://www.w3.org/2000/svg">
<path d="M1.35417 7.12716C1.35417 6.10207 1.35417 5.58953 1.55683 5.1994C1.7276 4.87064 1.99566 4.60259 2.32442 4.43181C2.71455 4.22916 3.22709 4.22916 4.25217 4.22916H14.7478C15.7729 4.22916 16.2855 4.22916 16.6756 4.43181C17.0044 4.60259 17.2724 4.87064 17.4432 5.1994C17.6458 5.58953 17.6458 6.10207 17.6458 7.12716V12.8312C17.6458 13.8562 17.6458 14.3688 17.4432 14.7589C17.2724 15.0877 17.0044 15.3557 16.6756 15.5265C16.2855 15.7292 15.7729 15.7292 14.7478 15.7292H4.25217C3.22709 15.7292 2.71455 15.7292 2.32442 15.5265C1.99566 15.3557 1.7276 15.0877 1.55683 14.7589C1.35417 14.3688 1.35417 13.8562 1.35417 12.8312V7.12716Z" stroke="#222222"/>
<path d="M1.35417 8.0625L17.6458 8.0625" stroke="#222222" stroke-linecap="round"/>
<ellipse cx="4.22917" cy="12.8542" rx="0.479167" ry="0.479167" fill="#222222"/>
</svg>
