<svg width="19" height="19" viewBox="0 0 19 19" fill="none" xmlns="http://www.w3.org/2000/svg">
<g clip-path="url(#clip0_273_307)">
<circle cx="10" cy="6" r="2.5" stroke="#222222" stroke-linecap="round"/>
<path d="M11.7679 4.5C11.9657 4.15743 12.2607 3.88121 12.6154 3.70625C12.9702 3.5313 13.3689 3.46548 13.7611 3.51711C14.1532 3.56874 14.5213 3.73551 14.8187 3.99632C15.1161 4.25713 15.3295 4.60028 15.4319 4.98236C15.5342 5.36445 15.521 5.76831 15.3939 6.14288C15.2667 6.51745 15.0313 6.8459 14.7175 7.08671C14.4037 7.32751 14.0255 7.46985 13.6308 7.49572C13.2361 7.52159 12.8426 7.42983 12.5 7.23205" stroke="#222222"/>
<path d="M8.23205 4.5C8.03427 4.15743 7.73935 3.88121 7.38458 3.70625C7.02981 3.5313 6.63113 3.46548 6.23895 3.51711C5.84677 3.56874 5.47871 3.73551 5.18131 3.99632C4.88391 4.25713 4.67053 4.60028 4.56815 4.98236C4.46577 5.36445 4.47899 5.76831 4.60614 6.14288C4.73329 6.51745 4.96866 6.8459 5.28248 7.08671C5.5963 7.32751 5.97448 7.46985 6.36919 7.49572C6.76391 7.52159 7.15743 7.42983 7.5 7.23205" stroke="#222222"/>
<path d="M10 10.5C14.0802 10.5 15.1335 13.8022 15.4054 15.507C15.4924 16.0524 15.0523 16.5 14.5 16.5H5.5C4.94771 16.5 4.50763 16.0524 4.59461 15.507C4.86649 13.8022 5.91976 10.5 10 10.5Z" stroke="#222222" stroke-linecap="round"/>
<path d="M17.2965 13.4162L16.8115 13.5377L16.8115 13.5377L17.2965 13.4162ZM11.0871 10.5859L10.7179 10.2488L10.0974 10.9283L11.0051 11.0791L11.0871 10.5859ZM15.1813 14.5L14.701 14.639L14.8055 15H15.1813V14.5ZM13.5 10C14.5277 10 15.2495 10.5027 15.7783 11.2069C16.3177 11.9253 16.6344 12.8306 16.8115 13.5377L17.7816 13.2948C17.5904 12.5315 17.2329 11.4787 16.578 10.6065C15.9126 9.72026 14.9202 9 13.5 9V10ZM11.4563 10.923C11.9567 10.375 12.6107 10 13.5 10V9C12.2828 9 11.3736 9.53062 10.7179 10.2488L11.4563 10.923ZM11.0051 11.0791C13.3056 11.4614 14.2789 13.1801 14.701 14.639L15.6616 14.361C15.1905 12.7326 14.019 10.5663 11.1691 10.0927L11.0051 11.0791ZM16.395 14H15.1813V15H16.395V14ZM16.8115 13.5377C16.8653 13.7526 16.7075 14 16.395 14V15C17.2657 15 18.0152 14.2277 17.7816 13.2948L16.8115 13.5377Z" fill="#222222"/>
<path d="M8.91291 10.5859L8.99487 11.0791L9.90257 10.9283L9.28215 10.2488L8.91291 10.5859ZM2.70345 13.4162L3.18847 13.5377L2.70345 13.4162ZM4.81869 14.5V15H5.19454L5.299 14.639L4.81869 14.5ZM6.5 10C7.38933 10 8.0433 10.375 8.54366 10.923L9.28215 10.2488C8.62645 9.53062 7.71724 9 6.5 9V10ZM3.18847 13.5377C3.36555 12.8306 3.6823 11.9253 4.22168 11.2069C4.75049 10.5027 5.47228 10 6.5 10V9C5.07982 9 4.08744 9.72026 3.42201 10.6065C2.76715 11.4787 2.40957 12.5315 2.21842 13.2948L3.18847 13.5377ZM3.60499 14C3.29249 14 3.13466 13.7526 3.18847 13.5377L2.21842 13.2948C1.98479 14.2277 2.73425 15 3.60499 15V14ZM4.81869 14H3.60499V15H4.81869V14ZM5.299 14.639C5.72106 13.1801 6.69437 11.4614 8.99487 11.0791L8.83094 10.0927C5.98103 10.5663 4.80952 12.7326 4.33839 14.361L5.299 14.639Z" fill="#222222"/>
</g>
<defs>
<clipPath id="clip0_273_307">
<rect width="19" height="19" fill="white"/>
</clipPath>
</defs>
</svg>
