<svg width="19" height="19" viewBox="0 0 19 19" fill="none" xmlns="http://www.w3.org/2000/svg">
<g clip-path="url(#clip0_273_307)">
<path d="M2.26523 11.3287L8.92815 17.5878C9.14392 17.7905 9.2518 17.8919 9.377 17.9236C9.45772 17.9441 9.54228 17.9441 9.623 17.9236C9.74819 17.8919 9.85608 17.7905 10.0718 17.5878L16.7348 11.3287C18.6094 9.56766 18.8371 6.66967 17.2604 4.63749L16.9639 4.25538C15.0778 1.82432 11.2917 2.23202 9.96638 5.00893C9.77917 5.40118 9.22082 5.40118 9.03361 5.00893C7.70827 2.23202 3.92223 1.82431 2.03606 4.25538L1.73959 4.63749C0.162904 6.66967 0.390556 9.56766 2.26523 11.3287Z" stroke="#222222"/>
</g>
<defs>
<clipPath id="clip0_273_307">
<rect width="19" height="19" fill="white"/>
</clipPath>
</defs>
</svg>
