<svg width="19" height="19" viewBox="0 0 19 19" fill="none" xmlns="http://www.w3.org/2000/svg">
<path d="M8.45833 7.93749H9C9.27614 7.93749 9.5 8.16135 9.5 8.43749V12.6458C9.5 12.922 9.72385 13.1458 10 13.1458H10.5417M9.50001 5.85416H9.51042" stroke="#222222" stroke-linecap="round" stroke-linejoin="round"/>
<path d="M10.9471 17.7067C12.0248 17.5167 13.0545 17.1162 13.9775 16.5283C14.9005 15.9403 15.6986 15.1762 16.3263 14.2798C16.954 13.3834 17.3989 12.3721 17.6358 11.3037C17.8727 10.2352 17.8968 9.13064 17.7067 8.05292C17.5167 6.9752 17.1162 5.94546 16.5283 5.02249C15.9403 4.09953 15.1762 3.30142 14.2798 2.67372C13.3834 2.04603 12.3721 1.60105 11.3037 1.36419C10.2352 1.12733 9.13065 1.10323 8.05292 1.29326C6.9752 1.48329 5.94546 1.88374 5.0225 2.47173C4.09953 3.05972 3.30142 3.82375 2.67373 4.72019C2.04603 5.61663 1.60105 6.62792 1.36419 7.69633C1.12733 8.76474 1.10323 9.86934 1.29326 10.9471C1.48329 12.0248 1.88374 13.0545 2.47173 13.9775C3.05973 14.9005 3.82375 15.6986 4.72019 16.3263C5.61663 16.954 6.62792 17.3989 7.69633 17.6358C8.76474 17.8727 9.86934 17.8968 10.9471 17.7067L10.9471 17.7067Z" stroke="#222222"/>
</svg>
