<svg width="23" height="23" viewBox="0 0 23 23" fill="none" xmlns="http://www.w3.org/2000/svg">
<path d="M3.83333 12.625C3.83333 10.7394 3.83333 9.79657 4.41911 9.21079C5.0049 8.625 5.94771 8.625 7.83333 8.625H15.1667C17.0523 8.625 17.9951 8.625 18.5809 9.21079C19.1667 9.79657 19.1667 10.7394 19.1667 12.625V14.125C19.1667 16.9534 19.1667 18.3676 18.288 19.2463C17.4093 20.125 15.9951 20.125 13.1667 20.125H9.83332C7.0049 20.125 5.59069 20.125 4.71201 19.2463C3.83333 18.3676 3.83333 16.9534 3.83333 14.125V12.625Z" stroke="#222222"/>
<path d="M15.3333 7.66667V6.70833C15.3333 4.59124 13.6171 2.875 11.5 2.875V2.875C9.3829 2.875 7.66666 4.59124 7.66666 6.70834V7.66667" stroke="#222222" stroke-linecap="round"/>
<ellipse cx="11.5" cy="14.375" rx="1.91667" ry="1.91667" fill="#222222"/>
</svg>
