<svg width="19" height="19" viewBox="0 0 19 19" fill="none" xmlns="http://www.w3.org/2000/svg">
<g clip-path="url(#clip0_273_307)">
<path d="M11.3691 1.94126L11.8666 1.89151L11.8666 1.89151L11.3691 1.94126ZM11.2887 1.41918L10.8169 1.58459L10.8169 1.58459L11.2887 1.41918ZM11.5227 2.87373L11.9734 2.6572L11.9734 2.6572L11.5227 2.87373ZM12.7552 3.38425L12.5896 2.91247L12.5896 2.91247L12.7552 3.38425ZM13.5231 2.83349L13.8398 3.22048L13.8432 3.2176L13.5231 2.83349ZM13.5231 2.83348L13.2065 2.44649L13.2031 2.44937L13.5231 2.83348ZM13.9492 2.5212L14.1658 2.97181L14.1658 2.97181L13.9492 2.5212ZM14.9034 2.56879L15.1639 2.14198L15.1639 2.14198L14.9034 2.56879ZM15.2963 2.92192L15.6498 2.56837L15.6498 2.56837L15.2963 2.92192ZM16.078 3.70371L15.7245 4.05726L15.7363 4.06903L15.7488 4.08L16.078 3.70371ZM16.078 3.70371L16.4316 3.35016L16.4198 3.33839L16.4073 3.32743L16.078 3.70371ZM16.4312 4.09655L16.858 3.83611L16.858 3.83611L16.4312 4.09655ZM16.4788 5.05081L16.0282 4.83412L16.0282 4.83412L16.4788 5.05081ZM16.1665 5.47683L16.5402 5.80901L16.547 5.80136L16.5535 5.79344L16.1665 5.47683ZM16.1665 5.47684L15.7928 5.14466L15.786 5.1523L15.7795 5.16022L16.1665 5.47684ZM15.6157 6.2448L15.1439 6.07922L15.1439 6.07922L15.6157 6.2448ZM16.1262 7.4773L16.3427 7.02662L16.3427 7.02662L16.1262 7.4773ZM17.0587 7.63087L17.1085 7.13335L17.1085 7.13335L17.0587 7.63087ZM17.5808 7.7113L17.7463 7.23945L17.7463 7.23945L17.5808 7.7113ZM18.2219 8.4197L18.7079 8.30205L18.7079 8.30205L18.2219 8.4197ZM18.2219 10.5802L17.736 10.4626L17.736 10.4626L18.2219 10.5802ZM17.5807 11.2887L17.4154 10.8169L17.4154 10.8169L17.5807 11.2887ZM17.0588 11.3691L17.009 10.8716L17.009 10.8716L17.0588 11.3691ZM16.1267 11.5226L16.3432 11.9733L16.3432 11.9733L16.1267 11.5226ZM15.6161 12.7553L15.1443 12.921L15.1443 12.921L15.6161 12.7553ZM16.1666 13.5229L15.7796 13.8395L15.7796 13.8395L16.1666 13.5229ZM16.4788 13.9487L16.0282 14.1654L16.0282 14.1654L16.4788 13.9487ZM16.4312 14.9032L16.0044 14.6427L16.0044 14.6427L16.4312 14.9032ZM16.0782 15.2958L16.4318 15.6493L16.4318 15.6493L16.0782 15.2958ZM16.0782 15.2958L16.4317 15.6494L16.4317 15.6494L16.0782 15.2958ZM15.2963 16.0777L14.9427 15.7241L14.9427 15.7241L15.2963 16.0777ZM14.9035 16.4308L15.1639 16.8576L15.1639 16.8576L14.9035 16.4308ZM13.9492 16.4784L13.7325 16.929L13.7325 16.929L13.9492 16.4784ZM13.5232 16.1661L13.8398 15.7791L13.8209 15.7637L13.8005 15.7501L13.5232 16.1661ZM13.5232 16.1661L13.2066 16.5531L13.2255 16.5686L13.2458 16.5821L13.5232 16.1661ZM12.7552 15.6154L12.5897 16.0871L12.5897 16.0871L12.7552 15.6154ZM11.5227 16.1259L11.072 15.9094L11.5227 16.1259ZM11.3691 17.0585L11.8667 17.1083L11.8667 17.1083L11.3691 17.0585ZM11.3691 17.0586L11.8667 17.1083L11.8667 17.1083L11.3691 17.0586ZM11.2887 17.5809L10.8168 17.4155L10.8168 17.4155L11.2887 17.5809ZM10.5804 18.2219L10.6981 18.7079L10.6981 18.7079L10.5804 18.2219ZM8.4197 18.2219L8.30205 18.7079L8.30206 18.7079L8.4197 18.2219ZM7.7113 17.5808L8.18314 17.4154L8.18314 17.4154L7.7113 17.5808ZM7.63087 17.0587L8.12839 17.009L8.12839 17.009L7.63087 17.0587ZM7.4773 16.1262L7.92798 15.9097L7.92798 15.9097L7.4773 16.1262ZM6.24481 15.6157L6.41037 16.0875L6.41038 16.0875L6.24481 15.6157ZM5.47682 16.1665L5.78919 16.557L5.79344 16.5535L5.47682 16.1665ZM5.47682 16.1665L5.77682 16.5665L5.78306 16.5618L5.78916 16.5569L5.47682 16.1665ZM5.4768 16.1665L5.1768 15.7665L5.16836 15.7728L5.16018 15.7795L5.4768 16.1665ZM5.05075 16.4788L4.83408 16.0282L4.83408 16.0282L5.05075 16.4788ZM4.09653 16.4312L4.35696 16.0044L4.35696 16.0044L4.09653 16.4312ZM3.70366 16.0781L3.32737 16.4073L3.33834 16.4199L3.35011 16.4316L3.70366 16.0781ZM3.70366 16.0781L4.07995 15.7488L4.06898 15.7363L4.05721 15.7245L3.70366 16.0781ZM2.9219 15.2963L2.56834 15.6499L2.56834 15.6499L2.9219 15.2963ZM2.56875 14.9035L2.99556 14.643L2.99556 14.643L2.56875 14.9035ZM2.52115 13.9492L2.07054 13.7325L2.07054 13.7325L2.52115 13.9492ZM2.83346 13.5232L2.45717 13.1939L2.45172 13.2001L2.44648 13.2065L2.83346 13.5232ZM2.83347 13.5232L3.20975 13.8524L3.2152 13.8462L3.22044 13.8398L2.83347 13.5232ZM3.38425 12.7552L2.91246 12.5896L2.91246 12.5896L3.38425 12.7552ZM2.87372 11.5227L3.09025 11.072L3.09025 11.072L2.87372 11.5227ZM1.94125 11.3691L1.991 10.8716L1.96619 10.8691H1.94125V11.3691ZM1.94124 11.3691L1.89148 11.8666L1.9163 11.8691H1.94124V11.3691ZM1.41918 11.2887L1.25377 11.7606L1.25377 11.7606L1.41918 11.2887ZM0.778071 10.5803L1.26404 10.4626L1.26404 10.4626L0.778071 10.5803ZM0.75 10.0528L1.25 10.0528L0.75 10.0528ZM0.75 8.9473L1.25 8.9473L0.75 8.9473ZM0.778092 8.41963L1.26405 8.53731L1.26405 8.53731L0.778092 8.41963ZM1.4191 7.71132L1.58455 8.18315L1.58455 8.18315L1.4191 7.71132ZM1.94136 7.63086L1.99111 8.12838L1.99111 8.12838L1.94136 7.63086ZM2.87417 7.47722L2.65758 7.02657L2.65758 7.02657L2.87417 7.47722ZM3.38462 6.24488L2.91281 6.4104L2.91281 6.4104L3.38462 6.24488ZM2.83362 5.47659L2.44664 5.79321L2.44664 5.79321L2.83362 5.47659ZM2.52114 5.05029L2.97178 4.83367L2.97178 4.83367L2.52114 5.05029ZM2.56872 4.09626L2.14188 3.83587L2.14188 3.83587L2.56872 4.09626ZM2.92204 3.7032L2.56849 3.34965L2.56849 3.34965L2.92204 3.7032ZM3.7037 2.92154L3.35015 2.56799L3.35015 2.56799L3.7037 2.92154ZM4.09656 2.56838L3.83613 2.14157L3.83613 2.14157L4.09656 2.56838ZM5.05079 2.52079L5.26747 2.07018L5.26747 2.07018L5.05079 2.52079ZM5.47692 2.83316L5.79702 2.44904L5.79354 2.44618L5.47692 2.83316ZM5.47692 2.83317L5.15682 3.21729L5.1603 3.22015L5.47692 2.83317ZM6.24471 3.38387L6.41034 2.9121L6.41034 2.9121L6.24471 3.38387ZM7.4774 2.87327L7.92812 3.08974L7.92812 3.08974L7.4774 2.87327ZM7.63089 1.94115L8.1284 1.9909L8.13089 1.96609V1.94115H7.63089ZM7.63089 1.94114L7.1335 1.89013L7.13089 1.91557V1.94114H7.63089ZM7.63089 1.94113L8.12828 1.99214L8.12841 1.99088L7.63089 1.94113ZM7.71126 1.41927L8.18313 1.58463L8.18313 1.58463L7.71126 1.41927ZM8.4198 0.77805L8.53739 1.26403L8.53739 1.26403L8.4198 0.77805ZM10.5803 0.778072L10.4627 1.26404L10.4627 1.26404L10.5803 0.778072ZM11.8666 1.89151C11.8422 1.64656 11.8247 1.43666 11.7606 1.25377L10.8169 1.58459C10.8317 1.62689 10.8415 1.68998 10.8716 1.99101L11.8666 1.89151ZM11.9734 2.6572C11.9687 2.64756 11.9518 2.60416 11.9311 2.46703C11.911 2.3335 11.893 2.15474 11.8666 1.89151L10.8716 1.99101C10.8969 2.24373 10.9176 2.45194 10.9423 2.61602C10.9665 2.7765 11.0005 2.94135 11.072 3.09025L11.9734 2.6572ZM12.5896 2.91247C12.3492 2.99686 12.0837 2.8869 11.9734 2.6572L11.072 3.09025C11.4031 3.77935 12.1994 4.10921 12.9208 3.85604L12.5896 2.91247ZM13.2065 2.44651C13.0018 2.61403 12.8626 2.72769 12.754 2.80788C12.6424 2.89023 12.5997 2.90892 12.5896 2.91247L12.9208 3.85604C13.0767 3.80134 13.2173 3.70882 13.3479 3.61244C13.4814 3.5139 13.6432 3.3813 13.8398 3.22047L13.2065 2.44651ZM13.2031 2.44937L13.203 2.44938L13.8432 3.2176L13.8432 3.21759L13.2031 2.44937ZM13.7325 2.07059C13.5578 2.15458 13.397 2.29063 13.2065 2.4465L13.8398 3.22046C14.0739 3.02889 14.1255 2.99123 14.1658 2.97181L13.7325 2.07059ZM15.1639 2.14198C14.7297 1.87704 14.1908 1.85017 13.7325 2.07059L14.1658 2.97181C14.3186 2.89833 14.4983 2.90729 14.643 2.9956L15.1639 2.14198ZM15.6498 2.56837C15.4757 2.39431 15.3293 2.24293 15.1639 2.14198L14.643 2.9956C14.6812 3.01895 14.7288 3.06156 14.9427 3.27548L15.6498 2.56837ZM16.4316 3.35016L15.6498 2.56837L14.9427 3.27548L15.7245 4.05726L16.4316 3.35016ZM16.4073 3.32743L16.4073 3.32742L15.7488 4.08L15.7488 4.08L16.4073 3.32743ZM16.858 3.83611C16.757 3.67067 16.6057 3.52422 16.4316 3.35016L15.7245 4.05727C15.9384 4.27119 15.981 4.31874 16.0044 4.357L16.858 3.83611ZM16.9294 5.26749C17.1498 4.80912 17.1229 4.27027 16.858 3.83611L16.0044 4.357C16.0927 4.50172 16.1016 4.68133 16.0282 4.83412L16.9294 5.26749ZM16.5535 5.79344C16.7093 5.60293 16.8454 5.44215 16.9294 5.26749L16.0282 4.83412C16.0087 4.87451 15.9711 4.92607 15.7795 5.16021L16.5535 5.79344ZM16.5402 5.80902L16.5402 5.80901L15.7928 5.14464L15.7928 5.14466L16.5402 5.80902ZM16.0875 6.41037C16.091 6.40028 16.1097 6.35759 16.1921 6.24601C16.2723 6.13736 16.3859 5.99821 16.5535 5.79346L15.7795 5.16022C15.6187 5.3568 15.4861 5.51864 15.3875 5.65215C15.2911 5.78272 15.1986 5.92335 15.1439 6.07922L16.0875 6.41037ZM16.3427 7.02662C16.113 6.91627 16.0031 6.65082 16.0875 6.41037L15.1439 6.07922C14.8907 6.80058 15.2206 7.59692 15.9097 7.92799L16.3427 7.02662ZM17.1085 7.13335C16.8452 7.10703 16.6665 7.089 16.5329 7.06888C16.3958 7.04822 16.3524 7.03125 16.3427 7.02662L15.9097 7.92799C16.0586 7.99953 16.2234 8.03354 16.3839 8.05772C16.548 8.08244 16.7562 8.10312 17.009 8.12839L17.1085 7.13335ZM17.7463 7.23945C17.5633 7.17533 17.3534 7.15785 17.1085 7.13335L17.009 8.12839C17.31 8.1585 17.3731 8.16831 17.4154 8.18314L17.7463 7.23945ZM18.7079 8.30205C18.5882 7.80773 18.2262 7.40772 17.7463 7.23945L17.4154 8.18314C17.5754 8.23923 17.6961 8.37257 17.736 8.53734L18.7079 8.30205ZM18.75 8.94721C18.75 8.70104 18.7535 8.49043 18.7079 8.30205L17.736 8.53734C17.7465 8.5809 17.75 8.64466 17.75 8.94721H18.75ZM18.75 10.0529V8.94721H17.75V10.0529H18.75ZM18.7079 10.6978C18.7535 10.5095 18.75 10.299 18.75 10.0529H17.75C17.75 10.3553 17.7465 10.4191 17.736 10.4626L18.7079 10.6978ZM17.7461 11.7606C18.2262 11.5923 18.5883 11.1922 18.7079 10.6978L17.736 10.4626C17.6961 10.6274 17.5754 10.7608 17.4154 10.8169L17.7461 11.7606ZM17.1086 11.8666C17.3534 11.8421 17.5633 11.8247 17.7461 11.7606L17.4154 10.8169C17.3731 10.8317 17.31 10.8415 17.009 10.8716L17.1086 11.8666ZM16.3432 11.9733C16.3528 11.9687 16.3962 11.9517 16.5332 11.9311C16.6667 11.911 16.8454 11.893 17.1086 11.8666L17.009 10.8716C16.7564 10.8969 16.5483 10.9175 16.3843 10.9422C16.2239 10.9664 16.0591 11.0004 15.9103 11.0719L16.3432 11.9733ZM16.0878 12.5897C16.0034 12.3492 16.1134 12.0837 16.3432 11.9733L15.9103 11.0719C15.2209 11.4029 14.891 12.1995 15.1443 12.921L16.0878 12.5897ZM16.5536 13.2063C16.3861 13.0016 16.2725 12.8625 16.1924 12.7539C16.1101 12.6424 16.0914 12.5998 16.0878 12.5897L15.1443 12.921C15.199 13.0768 15.2915 13.2173 15.3878 13.3478C15.4863 13.4813 15.6189 13.643 15.7796 13.8395L16.5536 13.2063ZM16.9293 13.732C16.8454 13.5574 16.7094 13.3967 16.5536 13.2063L15.7796 13.8395C15.9711 14.0735 16.0088 14.1251 16.0282 14.1654L16.9293 13.732ZM16.8579 15.1637C17.123 14.7294 17.1499 14.1904 16.9293 13.732L16.0282 14.1654C16.1017 14.3183 16.0927 14.4979 16.0044 14.6427L16.8579 15.1637ZM16.4318 15.6493C16.6057 15.4754 16.757 15.329 16.8579 15.1637L16.0044 14.6427C15.981 14.6809 15.9385 14.7284 15.7246 14.9422L16.4318 15.6493ZM16.4317 15.6494L16.4318 15.6493L15.7246 14.9422L15.7246 14.9422L16.4317 15.6494ZM15.6498 16.4312L16.4317 15.6494L15.7246 14.9422L14.9427 15.7241L15.6498 16.4312ZM15.1639 16.8576C15.3293 16.7567 15.4758 16.6053 15.6498 16.4312L14.9427 15.7241C14.7288 15.9381 14.6813 15.9807 14.643 16.004L15.1639 16.8576ZM13.7325 16.929C14.1909 17.1494 14.7297 17.1226 15.1639 16.8576L14.643 16.004C14.4983 16.0923 14.3187 16.1013 14.1659 16.0278L13.7325 16.929ZM13.2066 16.5531C13.3971 16.709 13.5579 16.845 13.7325 16.929L14.1659 16.0278C14.1255 16.0084 14.0739 15.9707 13.8398 15.7791L13.2066 16.5531ZM13.2458 16.5821L13.2458 16.5821L13.8005 15.7501L13.8005 15.7501L13.2458 16.5821ZM12.5897 16.0871C12.5998 16.0907 12.6424 16.1094 12.754 16.1917C12.8627 16.2719 13.0018 16.3856 13.2066 16.5531L13.8398 15.7791C13.6432 15.6183 13.4814 15.4857 13.3479 15.3872C13.2173 15.2908 13.0767 15.1983 12.9208 15.1436L12.5897 16.0871ZM11.9734 16.3424C12.0838 16.1127 12.3492 16.0028 12.5897 16.0871L12.9208 15.1436C12.1995 14.8904 11.4031 15.2203 11.072 15.9094L11.9734 16.3424ZM11.8667 17.1083C11.893 16.845 11.911 16.6662 11.9311 16.5326C11.9518 16.3954 11.9688 16.352 11.9734 16.3424L11.072 15.9094C11.0005 16.0583 10.9665 16.2231 10.9423 16.3836C10.9176 16.5478 10.8969 16.756 10.8716 17.0088L11.8667 17.1083ZM11.8667 17.1083L11.8667 17.1083L10.8716 17.0088L10.8716 17.0088L11.8667 17.1083ZM11.7605 17.7464C11.8247 17.5634 11.8422 17.3534 11.8667 17.1083L10.8716 17.0088C10.8415 17.31 10.8317 17.3731 10.8168 17.4155L11.7605 17.7464ZM10.6981 18.7079C11.1923 18.5882 11.5922 18.2262 11.7605 17.7464L10.8168 17.4155C10.7608 17.5754 10.6274 17.6961 10.4627 17.736L10.6981 18.7079ZM10.0527 18.75C10.2989 18.75 10.5096 18.7535 10.6981 18.7079L10.4627 17.736C10.4191 17.7465 10.3553 17.75 10.0527 17.75V18.75ZM8.94721 18.75H10.0527V17.75H8.94721V18.75ZM8.30206 18.7079C8.49043 18.7535 8.70104 18.75 8.94721 18.75V17.75C8.64466 17.75 8.58091 17.7465 8.53734 17.736L8.30206 18.7079ZM7.23945 17.7462C7.40772 18.2262 7.80773 18.5882 8.30205 18.7079L8.53734 17.736C8.37257 17.6961 8.23923 17.5754 8.18314 17.4154L7.23945 17.7462ZM7.13335 17.1085C7.15785 17.3534 7.17533 17.5633 7.23945 17.7462L8.18314 17.4154C8.16831 17.3731 8.1585 17.31 8.12839 17.009L7.13335 17.1085ZM7.02662 16.3427C7.03125 16.3524 7.04822 16.3958 7.06888 16.5329C7.089 16.6665 7.10703 16.8452 7.13335 17.1085L8.12839 17.009C8.10312 16.7562 8.08245 16.548 8.05772 16.3839C8.03354 16.2234 7.99952 16.0586 7.92798 15.9097L7.02662 16.3427ZM6.41038 16.0875C6.65082 16.0031 6.91626 16.1131 7.02662 16.3427L7.92798 15.9097C7.59691 15.2206 6.80059 14.8908 6.07924 15.1439L6.41038 16.0875ZM5.79344 16.5535C5.9982 16.3859 6.13736 16.2723 6.24601 16.1921C6.3576 16.1097 6.40028 16.091 6.41037 16.0875L6.07925 15.1439C5.92336 15.1986 5.78273 15.2911 5.65215 15.3875C5.51864 15.4861 5.35679 15.6187 5.1602 15.7795L5.79344 16.5535ZM5.78916 16.5569L5.78917 16.5569L5.16448 15.7761L5.16447 15.7761L5.78916 16.5569ZM5.7768 16.5665L5.77682 16.5665L5.17682 15.7665L5.1768 15.7665L5.7768 16.5665ZM5.26743 16.9294C5.4421 16.8454 5.60289 16.7094 5.79342 16.5535L5.16018 15.7795C4.92603 15.9711 4.87447 16.0088 4.83408 16.0282L5.26743 16.9294ZM3.83609 16.858C4.27024 17.123 4.80907 17.1498 5.26743 16.9294L4.83408 16.0282C4.68129 16.1017 4.50168 16.0927 4.35696 16.0044L3.83609 16.858ZM3.35011 16.4316C3.52418 16.6057 3.67064 16.7571 3.83609 16.858L4.35696 16.0044C4.3187 15.9811 4.27115 15.9385 4.05721 15.7245L3.35011 16.4316ZM3.32737 16.4073L3.32737 16.4073L4.07995 15.7488L4.07995 15.7488L3.32737 16.4073ZM2.56834 15.6499L3.3501 16.4316L4.05721 15.7245L3.27545 14.9428L2.56834 15.6499ZM2.14193 15.1639C2.24289 15.3293 2.39427 15.4758 2.56834 15.6499L3.27545 14.9428C3.06152 14.7288 3.01891 14.6813 2.99556 14.643L2.14193 15.1639ZM2.07054 13.7325C1.85013 14.1909 1.87701 14.7297 2.14193 15.1639L2.99556 14.643C2.90725 14.4983 2.89829 14.3187 2.97176 14.1659L2.07054 13.7325ZM2.44648 13.2065C2.2906 13.3971 2.15453 13.5579 2.07054 13.7325L2.97176 14.1659C2.99119 14.1255 3.02886 14.0739 3.22044 13.8398L2.44648 13.2065ZM2.45718 13.1939L2.45717 13.1939L3.20975 13.8524L3.20975 13.8524L2.45718 13.1939ZM2.91246 12.5896C2.90892 12.5997 2.89023 12.6424 2.80787 12.754C2.72767 12.8626 2.61401 13.0018 2.44649 13.2065L3.22044 13.8398C3.38128 13.6432 3.51389 13.4814 3.61243 13.3479C3.70882 13.2173 3.80134 13.0766 3.85604 12.9208L2.91246 12.5896ZM2.6572 11.9734C2.8869 12.0837 2.99685 12.3492 2.91246 12.5896L3.85604 12.9208C4.1092 12.1994 3.77934 11.4031 3.09025 11.072L2.6572 11.9734ZM1.8915 11.8666C2.15473 11.893 2.3335 11.911 2.46703 11.9311C2.60416 11.9518 2.64756 11.9687 2.6572 11.9734L3.09025 11.072C2.94135 11.0005 2.7765 10.9665 2.61601 10.9423C2.45193 10.9175 2.24373 10.8969 1.991 10.8716L1.8915 11.8666ZM1.94124 11.8691H1.94125V10.8691H1.94124V11.8691ZM1.25377 11.7606C1.43666 11.8247 1.64655 11.8421 1.89148 11.8666L1.99099 10.8716C1.68997 10.8415 1.62688 10.8317 1.58459 10.8169L1.25377 11.7606ZM0.292107 10.6979C0.411773 11.1923 0.773791 11.5923 1.25377 11.7606L1.58459 10.8169C1.4246 10.7608 1.30392 10.6274 1.26404 10.4626L0.292107 10.6979ZM0.25 10.0528C0.25 10.299 0.246509 10.5096 0.292107 10.6979L1.26404 10.4626C1.25349 10.4191 1.25 10.3553 1.25 10.0528L0.25 10.0528ZM0.25 8.9473L0.25 10.0528L1.25 10.0528L1.25 8.9473L0.25 8.9473ZM0.292138 8.30195C0.246507 8.49038 0.25 8.70105 0.25 8.9473L1.25 8.9473C1.25 8.64466 1.25349 8.58088 1.26405 8.53731L0.292138 8.30195ZM1.25365 7.23949C0.77377 7.40776 0.411825 7.8077 0.292138 8.30195L1.26405 8.53731C1.30394 8.37256 1.42459 8.23924 1.58455 8.18315L1.25365 7.23949ZM1.89161 7.13334C1.64658 7.15785 1.4366 7.17533 1.25365 7.23949L1.58455 8.18315C1.62686 8.16832 1.68997 8.1585 1.99111 8.12838L1.89161 7.13334ZM2.65758 7.02657C2.64794 7.0312 2.60453 7.04818 2.46735 7.06885C2.33377 7.08898 2.15494 7.10701 1.89161 7.13334L1.99111 8.12838C2.24393 8.1031 2.45221 8.08242 2.61635 8.05769C2.77689 8.0335 2.94181 7.99946 3.09075 7.92788L2.65758 7.02657ZM2.91281 6.4104C2.99715 6.65082 2.88722 6.9162 2.65758 7.02657L3.09075 7.92788C3.77967 7.59679 4.10945 6.80063 3.85643 6.07937L2.91281 6.4104ZM2.44664 5.79321C2.61424 5.99805 2.72795 6.13727 2.80818 6.24597C2.89058 6.3576 2.90927 6.4003 2.91281 6.4104L3.85643 6.07937C3.80173 5.92343 3.70917 5.78274 3.61275 5.65211C3.51417 5.51855 3.38151 5.35664 3.2206 5.15997L2.44664 5.79321ZM2.0705 5.26692C2.15452 5.44169 2.29066 5.60257 2.44664 5.79321L3.2206 5.15997C3.0289 4.92567 2.9912 4.87409 2.97178 4.83367L2.0705 5.26692ZM2.14188 3.83587C1.87707 4.26996 1.8502 4.80864 2.0705 5.26692L2.97178 4.83367C2.89834 4.68091 2.9073 4.50135 2.99557 4.35665L2.14188 3.83587ZM2.56849 3.34965C2.39433 3.52381 2.24286 3.67033 2.14188 3.83587L2.99557 4.35665C3.01892 4.31837 3.06155 4.2708 3.2756 4.05676L2.56849 3.34965ZM3.35014 2.56799L2.56849 3.34965L3.2756 4.05676L4.05725 3.2751L3.35014 2.56799ZM3.35015 2.56799L3.35014 2.56799L4.05725 3.2751L4.05725 3.2751L3.35015 2.56799ZM3.83613 2.14157C3.67067 2.24253 3.52422 2.39392 3.35015 2.56799L4.05725 3.2751C4.27119 3.06116 4.31874 3.01855 4.357 2.9952L3.83613 2.14157ZM5.26747 2.07018C4.80911 1.84978 4.27028 1.87665 3.83613 2.14157L4.357 2.9952C4.50172 2.90689 4.68133 2.89794 4.83412 2.9714L5.26747 2.07018ZM5.79354 2.44618C5.60297 2.29026 5.44215 2.15417 5.26747 2.07018L4.83412 2.9714C4.87451 2.99083 4.92608 3.02851 5.1603 3.22014L5.79354 2.44618ZM5.79701 2.44906L5.79701 2.44905L5.15683 3.21727L5.15683 3.21728L5.79701 2.44906ZM6.41034 2.9121C6.40026 2.90856 6.35759 2.88987 6.24602 2.80752C6.13739 2.72733 5.99826 2.61368 5.79354 2.44619L5.1603 3.22015C5.35685 3.38096 5.51866 3.51354 5.65213 3.61206C5.78267 3.70842 5.92326 3.80093 6.07907 3.85564L6.41034 2.9121ZM7.02669 2.6568C6.91634 2.88656 6.65083 2.99654 6.41034 2.9121L6.07907 3.85564C6.80054 4.10894 7.59708 3.77901 7.92812 3.08974L7.02669 2.6568ZM7.13337 1.8914C7.10705 2.15453 7.08904 2.33322 7.06893 2.4667C7.04828 2.60378 7.03132 2.64717 7.02669 2.6568L7.92812 3.08974C7.99961 2.94089 8.0336 2.77609 8.05777 2.61567C8.08248 2.45165 8.10314 2.24353 8.1284 1.9909L7.13337 1.8914ZM7.13089 1.94114V1.94115H8.13089V1.94114H7.13089ZM7.1335 1.89011L7.1335 1.89013L8.12828 1.99216L8.12828 1.99214L7.1335 1.89011ZM7.2394 1.2539C7.17533 1.43673 7.15785 1.64654 7.13337 1.89138L8.12841 1.99088C8.1585 1.68998 8.16831 1.62691 8.18313 1.58463L7.2394 1.2539ZM8.3022 0.292075C7.80776 0.411719 7.40765 0.773812 7.2394 1.2539L8.18313 1.58463C8.23921 1.4246 8.37258 1.30391 8.53739 1.26403L8.3022 0.292075ZM8.94708 0.25C8.70102 0.25 8.4905 0.246512 8.3022 0.292075L8.53739 1.26403C8.58094 1.25349 8.64467 1.25 8.94708 1.25V0.25ZM10.0528 0.25H8.94708V1.25H10.0528V0.25ZM10.6979 0.292108C10.5096 0.246509 10.299 0.25 10.0528 0.25V1.25C10.3553 1.25 10.4191 1.25349 10.4627 1.26404L10.6979 0.292108ZM11.7606 1.25377C11.5923 0.77379 11.1923 0.411774 10.6979 0.292108L10.4627 1.26404C10.6274 1.30392 10.7608 1.4246 10.8169 1.58459L11.7606 1.25377ZM12.5 9.5C12.5 11.1569 11.1569 12.5 9.5 12.5V13.5C11.7091 13.5 13.5 11.7091 13.5 9.5H12.5ZM9.5 6.5C11.1569 6.5 12.5 7.84315 12.5 9.5H13.5C13.5 7.29086 11.7091 5.5 9.5 5.5V6.5ZM6.5 9.5C6.5 7.84315 7.84315 6.5 9.5 6.5V5.5C7.29086 5.5 5.5 7.29086 5.5 9.5H6.5ZM9.5 12.5C7.84315 12.5 6.5 11.1569 6.5 9.5H5.5C5.5 11.7091 7.29086 13.5 9.5 13.5V12.5Z" fill="#222222"/>
</g>
<defs>
<clipPath id="clip0_273_307">
<rect width="19" height="19" fill="white"/>
</clipPath>
</defs>
</svg>
