<svg width="19" height="19" viewBox="0 0 19 19" fill="none" xmlns="http://www.w3.org/2000/svg">
<path d="M0.75 9.5L0.359566 9.18765L0.109688 9.5L0.359566 9.81235L0.75 9.5ZM8.625 10C8.90114 10 9.125 9.77614 9.125 9.5C9.125 9.22386 8.90114 9 8.625 9V10ZM3.85957 4.81265L0.359566 9.18765L1.14043 9.81235L4.64043 5.43735L3.85957 4.81265ZM0.359566 9.81235L3.85957 14.1873L4.64043 13.5627L1.14043 9.18765L0.359566 9.81235ZM0.75 10H8.625V9H0.75V10Z" fill="#222222"/>
<path d="M7.75 6.11544V5.88851C7.75 4.27017 7.75 3.461 8.22396 2.9015C8.69792 2.34201 9.49608 2.20899 11.0924 1.94293L11.2636 1.9144C14.5067 1.37388 16.1282 1.10363 17.1891 2.00232C18.25 2.90102 18.25 4.54493 18.25 7.83276V11.1672C18.25 14.4551 18.25 16.099 17.1891 16.9977C16.1282 17.8964 14.5067 17.6261 11.2636 17.0856L11.0924 17.0571C9.49608 16.791 8.69792 16.658 8.22396 16.0985C7.75 15.539 7.75 14.7298 7.75 13.1115V13.0577" stroke="#222222"/>
</svg>
