<svg width="19" height="19" viewBox="0 0 19 19" fill="none" xmlns="http://www.w3.org/2000/svg">
<path d="M11.8958 18.125V13.375C11.8958 12.8227 11.4481 12.375 10.8958 12.375H8.10417C7.55189 12.375 7.10417 12.8227 7.10417 13.375V18.125" stroke="black" stroke-linecap="round" stroke-linejoin="round"/>
<path d="M2.79167 8.54166V14.125C2.79167 16.0106 2.79167 16.9534 3.37746 17.5392C3.96324 18.125 4.90605 18.125 6.79168 18.125H12.2083C14.094 18.125 15.0368 18.125 15.6226 17.5392C16.2083 16.9534 16.2083 16.0106 16.2083 14.125V8.54166" stroke="black"/>
<path d="M2.41293 2.38993C2.59482 1.66237 2.68577 1.29859 2.95703 1.08679C3.22829 0.875 3.60327 0.875 4.35322 0.875H14.6468C15.3967 0.875 15.7717 0.875 16.043 1.08679C16.3142 1.29859 16.4052 1.66237 16.5871 2.38993L17.7247 6.94066C17.8058 7.26483 17.8463 7.42692 17.8441 7.55862C17.8365 8.00482 17.5342 8.392 17.1032 8.50756C16.9759 8.54167 16.8044 8.54167 16.4614 8.54167V8.54167C16.0173 8.54167 15.7953 8.54167 15.6081 8.50565C14.9216 8.37359 14.3539 7.89267 14.1108 7.23723C14.0445 7.0585 14.0089 6.84518 13.9378 6.41855V6.41855C13.9179 6.2992 13.908 6.23953 13.898 6.22308C13.8591 6.1589 13.7659 6.1589 13.727 6.22308C13.717 6.23953 13.7071 6.2992 13.6872 6.41855L13.609 6.8874C13.4499 7.842 12.624 8.54167 11.6562 8.54167V8.54167C10.6885 8.54167 9.86256 7.842 9.70346 6.8874L9.62531 6.41855C9.60542 6.2992 9.59548 6.23953 9.5855 6.22308C9.54657 6.1589 9.45343 6.1589 9.4145 6.22308C9.40452 6.23953 9.39458 6.2992 9.37469 6.41855L9.29654 6.8874C9.13744 7.842 8.31152 8.54167 7.34375 8.54167V8.54167C6.37598 8.54167 5.55006 7.842 5.39096 6.8874L5.31281 6.41855C5.29292 6.2992 5.28298 6.23953 5.273 6.22308C5.23407 6.1589 5.14093 6.1589 5.102 6.22308C5.09202 6.23953 5.08208 6.2992 5.06219 6.41855V6.41855C4.99108 6.84518 4.95553 7.0585 4.88923 7.23723C4.6461 7.89267 4.07839 8.37359 3.3919 8.50565C3.20471 8.54167 2.98267 8.54167 2.53858 8.54167V8.54167C2.19557 8.54167 2.02406 8.54167 1.89683 8.50756C1.46579 8.392 1.16348 8.00482 1.15592 7.55862C1.15369 7.42692 1.19421 7.26483 1.27525 6.94066L2.41293 2.38993Z" stroke="black"/>
</svg>
